/* XPM */
static char *tile0331676325141[] = {
/* columns rows colors chars-per-pixel */
"32 32 6 1 ",
"  c #4D9262",
". c #2F2F2E",
"X c gray71",
"o c gray88",
"Y c #3E734E",
"Z c #7AB055",
/* pixels */
"                                ",
"                      Y         ",
"                     Y Y        ",
"                      Y         ",
"                                ",
"                                ",
"                 Z              ",
"                 ZZ             ",
"      Z          ZZ  Z          ",
"      Z           ZYZZ          ",
"      Z Z         YZZY          ",
"      Z Z          YY           ",
"        Z                       ",
"                                ",
"                                ",
"Z                               ",
" Z                             Z",
"Z                               ",
"                                ",
"                                ",
"                  .. ..         ",
"                 .X..X.         ",
"           ..   .Xooo.          ",
"          .o.   .Xo.XX.         ",
"         .o.    .Xoooo.         ",
"         .oo.....XXXXX.         ",
"          ..ooooooooo.          ",
"           .ooooooooo.          ",
"           .oo.oo.o..           ",
"          .X.X.....o.           ",
"          .. ..    ..           ",
"                                "
};
