/* XPM */
static char *tile0701676327477[] = {
/* columns rows colors chars-per-pixel */
"32 32 9 1 ",
"  c #4D9262",
". c #2F2F2E",
"X c #7C4E2E",
"o c red",
"O c #8B5936",
"+ c #99643E",
"@ c #B97F56",
"# c #757A8B",
"$ c #A5BECE",
/* pixels */
"                                ",
"                                ",
"                                ",
"                                ",
"                                ",
"                                ",
"                                ",
"                                ",
"         ...............        ",
"        .@@@@@@@@@@@@@@@.       ",
"        .@@@@@@@@@@@@@@@.       ",
"        .@@@@@@@@@@@@@@@.       ",
"        .$$++++$$$++++$$.       ",
"        .XXXXXX$#$XXXXXX.       ",
"        .+++++++$+++++++.       ",
"        .+++++++++++++++.       ",
"        .OOOOOOOOOOOOOOO.       ",
"        .+++++++++++++++.       ",
"        .+++++++++++++++.       ",
"        .$XXXXXXXXXXXXX$.       ",
"         ...............        ",
"                                ",
"                                ",
"                                ",
"                                ",
"                                ",
"                                ",
"                                ",
"                                ",
"                                ",
"                                ",
"                               o"
};
