/* XPM */
static char *Walk_East_01676976925[] = {
/* columns rows colors chars-per-pixel */
"32 32 6 1 ",
"  c #4D9262",
". c black",
"X c #AA0000",
"o c #FF5555",
"O c #FFAA55",
"+ c white",
/* pixels */
"                                ",
"                                ",
"                                ",
"                                ",
"                                ",
"                                ",
"                                ",
"                                ",
"                                ",
"              ....              ",
"             ......             ",
"             ......             ",
"            ....oO.             ",
"            ...oOO.             ",
"            ...OOO.             ",
"            ...OO.              ",
"            . ....              ",
"             .XXXX.             ",
"             .X+XX.             ",
"             .X+XX.             ",
"             .Xo..              ",
"             .X.O.              ",
"             .X.O.              ",
"             .XX..              ",
"             .XX..              ",
"             .X.+.              ",
"             ..++.              ",
"             .+++.              ",
"              ...               ",
"              .oO.              ",
"              ....              ",
"                                "
};
