/* XPM */
static char *Walk_North_11676976924[] = {
/* columns rows colors chars-per-pixel */
"32 32 6 1 ",
"  c #4D9262",
". c black",
"X c #AA0000",
"o c #FF5555",
"O c #FFAA55",
"+ c white",
/* pixels */
"                                ",
"                                ",
"                                ",
"                                ",
"                                ",
"                                ",
"                                ",
"                                ",
"                                ",
"                                ",
"              ....              ",
"             ......             ",
"            ........            ",
"            ........            ",
"           ..........           ",
"           ..........           ",
"           .........            ",
"          .+X.......            ",
"          .+.XXXXXXX.           ",
"          .o.XXXXXXX+.          ",
"          .O..XXXX..+.          ",
"           . .XXXX..o.          ",
"             .XXXX..O.          ",
"             ..XXX. .           ",
"            .++.XXX.            ",
"            .+++..X.            ",
"            .+++++..            ",
"            .+++++..            ",
"            ..++..o.            ",
"            .o.. ...            ",
"            .O.                 ",
"            ...                 "
};
