/* XPM */
static char *Walk_South_31676976923[] = {
/* columns rows colors chars-per-pixel */
"32 32 6 1 ",
"  c #4D9262",
". c black",
"X c #AA0000",
"o c #FF5555",
"O c #FFAA55",
"+ c white",
/* pixels */
"                                ",
"                                ",
"                                ",
"                                ",
"                                ",
"                                ",
"                                ",
"                                ",
"                                ",
"                                ",
"              ....              ",
"             ......             ",
"            ........            ",
"            ...oo...            ",
"           ...oOOo...           ",
"           ...OOOO...           ",
"            ...OO....           ",
"            ..+..+.X+.          ",
"           .XXX++XX.+.          ",
"          .+XXXXXXX.o.          ",
"          .+...XX...O.          ",
"          .o..XXXX. .           ",
"          .O..XXXX.             ",
"           . .XXX..             ",
"            .XXX.+.             ",
"            .X..+++.            ",
"            ..+++++.            ",
"            ..+++++.            ",
"            .o..++..            ",
"            ... ..o.            ",
"                 .O.            ",
"                 ...            "
};
