/* XPM */
static char *Walk_West_01676976922[] = {
/* columns rows colors chars-per-pixel */
"32 32 6 1 ",
"  c #4D9262",
". c black",
"X c #AA0000",
"o c #FF5555",
"O c #FFAA55",
"+ c white",
/* pixels */
"                                ",
"                                ",
"                                ",
"                                ",
"                                ",
"                                ",
"                                ",
"                                ",
"                                ",
"              ....              ",
"             ......             ",
"             ......             ",
"             .Oo....            ",
"             .OOo...            ",
"             .OOO...            ",
"              .OO...            ",
"              .... .            ",
"             .XXXX.             ",
"             .XX+X.             ",
"             .XX+X.             ",
"              ..OX.             ",
"              .O.X.             ",
"              .O.X.             ",
"               .XX.             ",
"              ..XX.             ",
"              .+.X.             ",
"              .++..             ",
"              .+++.             ",
"               ...              ",
"              .Oo.              ",
"              ....              ",
"                                "
};
