/* XPM */
static char *Walk_West_31676976922[] = {
/* columns rows colors chars-per-pixel */
"32 32 7 1 ",
"  c #4D9262",
". c black",
"X c gray1",
"o c #AA0000",
"O c #FF5555",
"+ c #FFAA55",
"@ c white",
/* pixels */
"                                ",
"                                ",
"                                ",
"                                ",
"                                ",
"                                ",
"                                ",
"                                ",
"                                ",
"              ....              ",
"             ......             ",
"             ......             ",
"             .+O....            ",
"             .++O...            ",
"             .+++...            ",
"              .++...            ",
"              .... .            ",
"             .oooo.             ",
"             Xooo@.             ",
"             Xooo.@.            ",
"            X+..o.O.            ",
"            X+.ooo.+.           ",
"             X.ooo.+.           ",
"              .ooo..            ",
"             ..oooo.            ",
"             .@..oo.            ",
"             .@@@...            ",
"            ..@@@@@.            ",
"            .O....O+.           ",
"           .++.  ....           ",
"           ....                 ",
"                                "
};
