/* XPM */
static char *_1676320009[] = {
/* columns rows colors chars-per-pixel */
"32 32 7 1 ",
"  c #4D9262",
". c #3E734E",
"X c #9E7C59",
"o c #B08A63",
"O c #C2986D",
"+ c white",
"Y c #7AB055",
/* pixels */
"             .XoOOoXXXooOoXXXOOO",
"              .XooXooXoOOOoooXXX",
"              .XoXoOoXoOOOOoXoOo",
"               .XXooXXoOOOoXoOOO",
"                ..XXooXoOOoXoOOO",
"                .XooOOoXoOoXoOOO",
"               ..XoOOOOoXXXXooOo",
"              .XXoOOOOoXooOoXXoX",
"      Y       .ooXoOOOoXoOOOoXXo",
"      Y       .oooXoOoXoOOOOoXoO",
"      Y Y    .XoOooXooXoOOOOoXoo",
"      Y Y    .XoOOooXXXoOOOOoXXX",
"        Y     .oOoooXooXoOOoXXoO",
".         ..  .XoooXoOOoXoXXXXoO",
"X..    ...XX..XXXXXoOOOOoXXooXoO",
"oXX.  .XoooooXXXXXoOOOOOOoXoOoXX",
"OooX...XooOOOoXXXXoOOOOOOoXoOoXo",
"OoXX.XXoXooOooXXXXXooOOOOoXooXoO",
"oXooXooOoXooooXooXXXXooOOoXXXXoO",
"XoOoXoOOOoXooXoOOoXXXXXooXooOoXO",
"XooXoOOOOOoXXoOOOoXXXXoXXoOOOoXO",
"XXXXoOOOOooXoOOOOOoXXoOoXoOOOOoX",
"ooooXoOooXXXoOOOOOoXoOOOoXoOOoXX",
"oOOOoXoXXoooXoOOOOOoXoOOOoXXXXXX",
"OOOOOoXooOOOoXoOOOOoXXoOOoXoOoXo",
"oOOOOOXoOOOOOoXooooXooXooXoOOOoX",
"XoOoooXOOOOOOXXXXXXoOOoXXoOOOOoX",
"XooXXXXoOOOOoXooooXoOOOXoOOOOOoX",
"XoXooooXooooXXoOOoXOOOOXOOOOOOoX",
"OXoOOOoXXXXXXXXooXXooOoXoOOOOoXo",
"OXOOOOOoXooXoooXXooXXoXXXooooXoO",
"OXoOOOoXoOoXOOOXoOOOOXXXoXXXXoOO"
};
